<?xml version="1.0" encoding="UTF-8"?>
<svg xmlns="http://www.w3.org/2000/svg" xmlns:xlink="http://www.w3.org/1999/xlink" width="80px" height="43px" viewBox="0 0 79 43" version="1.1">
<defs>
<clipPath id="clip1">
  <path d="M 1 1 L 78 1 L 78 42 L 1 42 Z M 1 1 "/>
</clipPath>
<clipPath id="clip2">
  <path d="M 1.109375 21.476562 C 1.109375 32.71875 18.304688 41.835938 39.511719 41.835938 C 60.71875 41.835938 77.910156 32.71875 77.910156 21.476562 C 77.910156 10.234375 60.71875 1.121094 39.511719 1.121094 C 18.304688 1.121094 1.109375 10.234375 1.109375 21.476562 "/>
</clipPath>
<radialGradient id="radial0" gradientUnits="userSpaceOnUse" cx="0" cy="0" fx="0" fy="0" r="1" gradientTransform="matrix(50.424707,0,0,50.81865,24.166669,8.276922)">
<stop offset="0" style="stop-color:rgb(68.235294%,69.803922%,83.529412%);stop-opacity:1;"/>
<stop offset="0.3" style="stop-color:rgb(68.235294%,69.803922%,83.529412%);stop-opacity:1;"/>
<stop offset="0.75" style="stop-color:rgb(28.235294%,29.803922%,53.72549%);stop-opacity:1;"/>
<stop offset="1" style="stop-color:rgb(28.235294%,29.803922%,53.72549%);stop-opacity:1;"/>
</radialGradient>
</defs>
<g id="surface1">
<g clip-path="url(#clip1)" clip-rule="nonzero">
<g clip-path="url(#clip2)" clip-rule="nonzero">
<path style=" stroke:none;fill-rule:nonzero;fill:url(#radial0);" d="M 1.109375 21.476562 C 1.109375 32.71875 18.304688 41.835938 39.511719 41.835938 C 60.71875 41.835938 77.910156 32.71875 77.910156 21.476562 C 77.910156 10.234375 60.71875 1.121094 39.511719 1.121094 C 18.304688 1.121094 1.109375 10.234375 1.109375 21.476562 "/>
</g>
</g>
<path style=" stroke:none;fill-rule:nonzero;fill:rgb(46.666667%,48.235294%,70.196078%);fill-opacity:1;" d="M 39.511719 40.324219 C 59.890625 40.324219 76.410156 31.886719 76.410156 21.476562 C 76.410156 11.070312 59.890625 2.632812 39.511719 2.632812 C 19.132812 2.632812 2.609375 11.070312 2.609375 21.476562 C 2.609375 31.886719 19.132812 40.324219 39.511719 40.324219 "/>
<path style=" stroke:none;fill-rule:nonzero;fill:rgb(0%,0%,0%);fill-opacity:1;" d="M 21.972656 23.8125 C 23.648438 23.8125 24.902344 23.503906 25.691406 22.890625 C 26.476562 22.28125 27.015625 21.226562 27.300781 19.761719 C 27.5625 18.386719 27.464844 17.429688 27 16.910156 C 26.527344 16.382812 25.503906 16.117188 23.960938 16.117188 L 21.28125 16.117188 L 19.796875 23.8125 Z M 13.214844 33.296875 C 13.089844 33.296875 12.972656 33.242188 12.894531 33.144531 C 12.816406 33.046875 12.78125 32.921875 12.804688 32.796875 L 16.742188 12.394531 C 16.777344 12.199219 16.949219 12.054688 17.148438 12.054688 L 25.628906 12.054688 C 28.292969 12.054688 30.277344 12.785156 31.523438 14.222656 C 32.777344 15.671875 33.164062 17.691406 32.675781 20.230469 C 32.476562 21.265625 32.132812 22.226562 31.65625 23.089844 C 31.179688 23.949219 30.546875 24.746094 29.78125 25.457031 C 28.859375 26.324219 27.820312 26.953125 26.691406 27.324219 C 25.578125 27.6875 24.152344 27.875 22.449219 27.875 L 19.015625 27.875 L 18.035156 32.957031 C 17.996094 33.15625 17.824219 33.296875 17.625 33.296875 Z M 13.214844 33.296875 "/>
<path style=" stroke:none;fill-rule:nonzero;fill:rgb(100%,100%,100%);fill-opacity:1;" d="M 21.625 16.535156 L 23.960938 16.535156 C 25.824219 16.535156 26.472656 16.949219 26.691406 17.191406 C 27.054688 17.601562 27.125 18.460938 26.890625 19.679688 C 26.628906 21.046875 26.136719 22.011719 25.4375 22.554688 C 24.722656 23.113281 23.554688 23.394531 21.972656 23.394531 L 20.304688 23.394531 Z M 25.628906 11.636719 L 17.148438 11.636719 C 16.75 11.636719 16.40625 11.921875 16.332031 12.316406 L 12.398438 32.71875 C 12.351562 32.964844 12.414062 33.21875 12.574219 33.410156 C 12.730469 33.605469 12.964844 33.71875 13.214844 33.71875 L 17.625 33.71875 C 18.023438 33.71875 18.367188 33.433594 18.441406 33.039062 L 19.359375 28.292969 L 22.449219 28.292969 C 24.195312 28.292969 25.667969 28.101562 26.820312 27.722656 C 28.007812 27.335938 29.097656 26.675781 30.0625 25.765625 C 30.863281 25.023438 31.519531 24.191406 32.019531 23.292969 C 32.519531 22.394531 32.875 21.390625 33.085938 20.3125 C 33.601562 17.636719 33.179688 15.496094 31.839844 13.949219 C 30.507812 12.414062 28.421875 11.636719 25.628906 11.636719 M 19.292969 24.234375 L 21.972656 24.234375 C 23.753906 24.234375 25.078125 23.894531 25.945312 23.222656 C 26.816406 22.546875 27.402344 21.417969 27.707031 19.839844 C 28 18.324219 27.867188 17.253906 27.308594 16.628906 C 26.75 16.007812 25.636719 15.695312 23.960938 15.695312 L 20.9375 15.695312 L 19.292969 24.234375 M 25.628906 12.476562 C 28.179688 12.476562 30.042969 13.152344 31.210938 14.5 C 32.382812 15.851562 32.734375 17.734375 32.265625 20.152344 C 32.074219 21.148438 31.75 22.058594 31.292969 22.882812 C 30.835938 23.710938 30.238281 24.464844 29.496094 25.148438 C 28.617188 25.980469 27.640625 26.570312 26.5625 26.925781 C 25.484375 27.277344 24.113281 27.453125 22.449219 27.453125 L 18.671875 27.453125 L 17.625 32.878906 L 13.214844 32.878906 L 17.148438 12.476562 L 25.628906 12.476562 "/>
<path style=" stroke:none;fill-rule:nonzero;fill:rgb(0%,0%,0%);fill-opacity:1;" d="M 42.785156 27.875 C 42.660156 27.875 42.542969 27.816406 42.464844 27.71875 C 42.386719 27.625 42.355469 27.496094 42.378906 27.375 L 44.117188 18.347656 C 44.285156 17.488281 44.242188 16.871094 44.003906 16.613281 C 43.855469 16.453125 43.414062 16.183594 42.113281 16.183594 L 38.960938 16.183594 L 36.773438 27.535156 C 36.734375 27.730469 36.5625 27.875 36.363281 27.875 L 31.988281 27.875 C 31.863281 27.875 31.746094 27.816406 31.667969 27.71875 C 31.585938 27.625 31.554688 27.496094 31.578125 27.375 L 35.511719 6.972656 C 35.550781 6.773438 35.722656 6.632812 35.921875 6.632812 L 40.296875 6.632812 C 40.421875 6.632812 40.539062 6.6875 40.617188 6.785156 C 40.699219 6.882812 40.730469 7.007812 40.707031 7.132812 L 39.757812 12.054688 L 43.148438 12.054688 C 45.734375 12.054688 47.484375 12.515625 48.503906 13.460938 C 49.546875 14.421875 49.871094 15.964844 49.46875 18.039062 L 47.640625 27.535156 C 47.601562 27.730469 47.429688 27.875 47.230469 27.875 Z M 42.785156 27.875 "/>
<path style=" stroke:none;fill-rule:nonzero;fill:rgb(100%,100%,100%);fill-opacity:1;" d="M 40.296875 6.210938 L 35.921875 6.210938 C 35.523438 6.210938 35.179688 6.496094 35.105469 6.890625 L 31.167969 27.292969 C 31.121094 27.539062 31.1875 27.792969 31.34375 27.988281 C 31.503906 28.179688 31.738281 28.292969 31.988281 28.292969 L 36.363281 28.292969 C 36.761719 28.292969 37.105469 28.007812 37.179688 27.613281 L 39.304688 16.605469 L 42.113281 16.605469 C 43.414062 16.605469 43.6875 16.886719 43.699219 16.898438 C 43.777344 16.984375 43.878906 17.378906 43.707031 18.265625 L 41.96875 27.292969 C 41.921875 27.539062 41.984375 27.792969 42.144531 27.988281 C 42.300781 28.179688 42.539062 28.292969 42.785156 28.292969 L 47.230469 28.292969 C 47.628906 28.292969 47.972656 28.007812 48.050781 27.613281 L 49.878906 18.121094 C 50.308594 15.890625 49.941406 14.21875 48.789062 13.152344 C 47.6875 12.132812 45.84375 11.636719 43.148438 11.636719 L 40.261719 11.636719 L 41.117188 7.210938 C 41.164062 6.964844 41.097656 6.710938 40.941406 6.519531 C 40.78125 6.324219 40.546875 6.210938 40.296875 6.210938 M 40.296875 7.050781 L 39.25 12.476562 L 43.148438 12.476562 C 45.601562 12.476562 47.292969 12.90625 48.222656 13.769531 C 49.15625 14.632812 49.433594 16.027344 49.0625 17.960938 L 47.230469 27.453125 L 42.785156 27.453125 L 44.527344 18.425781 C 44.726562 17.398438 44.652344 16.699219 44.308594 16.324219 C 43.964844 15.953125 43.234375 15.765625 42.113281 15.765625 L 38.617188 15.765625 L 36.363281 27.453125 L 31.988281 27.453125 L 35.921875 7.050781 L 40.296875 7.050781 "/>
<path style=" stroke:none;fill-rule:nonzero;fill:rgb(0%,0%,0%);fill-opacity:1;" d="M 56.394531 23.8125 C 58.070312 23.8125 59.320312 23.503906 60.109375 22.890625 C 60.894531 22.28125 61.433594 21.226562 61.71875 19.761719 C 61.984375 18.386719 61.882812 17.429688 61.417969 16.910156 C 60.945312 16.382812 59.921875 16.117188 58.378906 16.117188 L 55.699219 16.117188 L 54.214844 23.8125 Z M 47.632812 33.296875 C 47.511719 33.296875 47.390625 33.242188 47.3125 33.144531 C 47.234375 33.046875 47.203125 32.921875 47.226562 32.796875 L 51.160156 12.394531 C 51.199219 12.199219 51.371094 12.054688 51.570312 12.054688 L 60.046875 12.054688 C 62.714844 12.054688 64.695312 12.785156 65.945312 14.222656 C 67.199219 15.671875 67.585938 17.691406 67.09375 20.230469 C 66.894531 21.265625 66.550781 22.226562 66.074219 23.089844 C 65.597656 23.949219 64.964844 24.746094 64.199219 25.457031 C 63.28125 26.324219 62.238281 26.953125 61.109375 27.324219 C 60 27.6875 58.570312 27.875 56.867188 27.875 L 53.433594 27.875 L 52.453125 32.957031 C 52.414062 33.15625 52.242188 33.296875 52.042969 33.296875 Z M 47.632812 33.296875 "/>
<path style=" stroke:none;fill-rule:nonzero;fill:rgb(100%,100%,100%);fill-opacity:1;" d="M 56.042969 16.535156 L 58.378906 16.535156 C 60.242188 16.535156 60.890625 16.949219 61.109375 17.191406 C 61.476562 17.601562 61.542969 18.460938 61.308594 19.679688 C 61.046875 21.046875 60.558594 22.011719 59.855469 22.554688 C 59.140625 23.113281 57.972656 23.394531 56.394531 23.394531 L 54.722656 23.394531 Z M 60.046875 11.636719 L 51.570312 11.636719 C 51.171875 11.636719 50.828125 11.921875 50.75 12.316406 L 46.816406 32.71875 C 46.769531 32.964844 46.832031 33.21875 46.992188 33.410156 C 47.148438 33.605469 47.386719 33.71875 47.632812 33.71875 L 52.042969 33.71875 C 52.441406 33.71875 52.785156 33.433594 52.863281 33.039062 L 53.777344 28.292969 L 56.867188 28.292969 C 58.613281 28.292969 60.085938 28.101562 61.238281 27.722656 C 62.425781 27.335938 63.515625 26.675781 64.484375 25.765625 C 65.28125 25.023438 65.941406 24.191406 66.4375 23.292969 C 66.9375 22.394531 67.296875 21.390625 67.503906 20.3125 C 68.019531 17.636719 67.601562 15.496094 66.257812 13.949219 C 64.929688 12.414062 62.839844 11.636719 60.046875 11.636719 M 53.710938 24.234375 L 56.394531 24.234375 C 58.171875 24.234375 59.496094 23.894531 60.367188 23.222656 C 61.234375 22.546875 61.824219 21.417969 62.128906 19.839844 C 62.417969 18.324219 62.285156 17.253906 61.730469 16.628906 C 61.171875 16.007812 60.054688 15.695312 58.378906 15.695312 L 55.355469 15.695312 L 53.710938 24.234375 M 60.046875 12.476562 C 62.597656 12.476562 64.460938 13.152344 65.628906 14.5 C 66.800781 15.851562 67.152344 17.734375 66.683594 20.152344 C 66.492188 21.148438 66.167969 22.058594 65.710938 22.882812 C 65.253906 23.710938 64.65625 24.464844 63.917969 25.148438 C 63.035156 25.980469 62.058594 26.570312 60.980469 26.925781 C 59.90625 27.277344 58.535156 27.453125 56.867188 27.453125 L 53.089844 27.453125 L 52.042969 32.878906 L 47.632812 32.878906 L 51.570312 12.476562 L 60.046875 12.476562 "/>
</g>
</svg>
